<svg width="137" height="137" xmlns="http://www.w3.org/2000/svg" xmlns:xlink="http://www.w3.org/1999/xlink" xml:space="preserve" overflow="hidden"><g transform="translate(-742 -505)"><path d="M856.067 554.491 804.692 566.664 804.692 609.177C801.826 608.606 798.857 608.859 796.129 609.905 789.936 612.16 786.14 617.326 787.567 621.45 788.994 625.574 795.287 627.158 801.481 624.861 807.075 622.834 810.272 617.725 810.272 614.557L810.272 573.386 850.23 563.953 850.23 599.773C847.303 599.183 844.268 599.44 841.482 600.515 835.146 602.841 831.236 608.164 832.777 612.431 834.318 616.698 840.697 618.268 847.048 615.956 852.413 614.029 855.981 610.048 856.167 606.323Z"/><path d="M789.921 529.831C788.665 529.011 787.615 527.913 786.853 526.62L786.853 523.995C786.853 522.418 785.575 521.14 783.999 521.14 782.423 521.14 781.145 522.418 781.145 523.995L781.145 567.078C778.384 566.592 775.543 566.863 772.925 567.863 766.731 570.104 762.935 575.27 764.362 579.408 765.789 583.547 772.097 585.116 778.291 582.819 782.572 581.249 785.74 578.266 786.753 575.198L786.753 545.101C787.139 545.403 787.544 545.679 787.966 545.929 797.485 551.637 792.248 560.656 796.9 560.699 802.879 560.742 803.122 538.636 789.921 529.831Z"/></g></svg>